<?xml version="1.0" standalone="no"?>
<!DOCTYPE svg PUBLIC "-//W3C//DTD SVG 20010904//EN"
 "http://www.w3.org/TR/2001/REC-SVG-20010904/DTD/svg10.dtd">
<svg version="1.0" xmlns="http://www.w3.org/2000/svg"
 width="107.000000pt" height="56.000000pt" viewBox="0 0 107.000000 56.000000"
 preserveAspectRatio="xMidYMid meet">

<g transform="translate(0.000000,56.000000) scale(0.100000,-0.100000)"
fill="#000000" stroke="none">
<path d="M688 544 c-32 -17 -58 -62 -58 -99 l0 -25 -315 0 -315 0 0 -205 0
-205 530 0 530 0 0 205 0 205 -105 0 -105 0 0 33 c0 79 -90 130 -162 91z m-25
-169 c28 -35 66 -110 67 -130 0 -6 -10 -11 -22 -12 -33 -3 -55 -30 -42 -50 22
-35 126 -35 147 -1 14 22 -7 48 -39 48 -13 0 -24 6 -24 13 1 21 38 95 67 132
l28 35 103 0 102 0 0 -195 0 -195 -520 0 -520 0 0 195 0 195 313 0 312 0 28
-35z"/>
</g>
</svg>
